<svg width="63" height="34" viewBox="0 0 63 34" fill="none" xmlns="http://www.w3.org/2000/svg">
<path d="M11.528 9.21V11.256H7.458V24.5H4.95V11.256H0.858V9.21H11.528ZM21.042 24.654C19.6193 24.654 18.3066 24.324 17.104 23.664C15.916 22.9893 14.97 22.058 14.266 20.87C13.5766 19.6673 13.232 18.318 13.232 16.822C13.232 15.326 13.5766 13.984 14.266 12.796C14.97 11.608 15.916 10.684 17.104 10.024C18.3066 9.34933 19.6193 9.012 21.042 9.012C22.4793 9.012 23.792 9.34933 24.98 10.024C26.1826 10.684 27.1286 11.608 27.818 12.796C28.5073 13.984 28.852 15.326 28.852 16.822C28.852 18.318 28.5073 19.6673 27.818 20.87C27.1286 22.058 26.1826 22.9893 24.98 23.664C23.792 24.324 22.4793 24.654 21.042 24.654ZM21.042 22.476C22.054 22.476 22.956 22.2487 23.748 21.794C24.54 21.3247 25.156 20.6647 25.596 19.814C26.0506 18.9487 26.278 17.9513 26.278 16.822C26.278 15.6927 26.0506 14.7027 25.596 13.852C25.156 13.0013 24.54 12.3487 23.748 11.894C22.956 11.4393 22.054 11.212 21.042 11.212C20.03 11.212 19.128 11.4393 18.336 11.894C17.544 12.3487 16.9206 13.0013 16.466 13.852C16.026 14.7027 15.806 15.6927 15.806 16.822C15.806 17.9513 16.026 18.9487 16.466 19.814C16.9206 20.6647 17.544 21.3247 18.336 21.794C19.128 22.2487 20.03 22.476 21.042 22.476ZM36.3139 9.21C37.9419 9.21 39.3646 9.52533 40.5819 10.156C41.8139 10.772 42.7599 11.6667 43.4199 12.84C44.0946 13.9987 44.4319 15.3553 44.4319 16.91C44.4319 18.4647 44.0946 19.814 43.4199 20.958C42.7599 22.102 41.8139 22.982 40.5819 23.598C39.3646 24.1993 37.9419 24.5 36.3139 24.5H31.3199V9.21H36.3139ZM36.3139 22.454C38.1033 22.454 39.4746 21.97 40.4279 21.002C41.3813 20.034 41.8579 18.67 41.8579 16.91C41.8579 15.1353 41.3813 13.7493 40.4279 12.752C39.4746 11.7547 38.1033 11.256 36.3139 11.256H33.8279V22.454H36.3139Z" fill="#787A91"/>
<circle cx="55" cy="17" r="8" fill="url(#paint0_linear_4_4)"/>
<g clip-path="url(#clip0_4_4)">
<path d="M53.7172 19.8657L51.1172 17.2657C50.961 17.1095 50.961 16.8562 51.1172 16.7L51.6828 16.1343C51.839 15.9781 52.0923 15.9781 52.2485 16.1343L54 17.8858L57.7515 14.1343C57.9077 13.9781 58.161 13.9781 58.3172 14.1343L58.8829 14.7C59.0391 14.8562 59.0391 15.1095 58.8829 15.2657L54.2829 19.8657C54.1266 20.0219 53.8734 20.0219 53.7172 19.8657Z" fill="white"/>
</g>
<defs>
<linearGradient id="paint0_linear_4_4" x1="47" y1="9" x2="63" y2="25" gradientUnits="userSpaceOnUse">
<stop stop-color="#75B9BE"/>
<stop offset="1" stop-color="#AA2EE6"/>
</linearGradient>
<clipPath id="clip0_4_4">
<rect width="8" height="8" fill="white" transform="translate(51 13)"/>
</clipPath>
</defs>
</svg>
